<mxfile host="app.diagrams.net" modified="2023-07-03T20:00:11.556Z" agent="Mozilla/5.0 (X11; Linux x86_64) AppleWebKit/537.36 (KHTML, like Gecko) Chrome/114.0.0.0 Safari/537.36" version="21.5.2" etag="E4ERBetmDWJr9n7vV7kd" type="github">
  <diagram name="Page-1" id="WjY1c1CqdKYfurvpz9Le">
    <mxGraphModel>
      <root>
        <mxCell id="0" />
        <mxCell id="1" parent="0" />
      </root>
    </mxGraphModel>
  </diagram>
</mxfile>
